# xmcd
#
# Track frame offsets: 
#        150
#        21337
#        37042
#        67690
#
# Disc length: 1317 seconds
#
# Revision: 0
# Processed by: cddbd v1.5.2PL0 Copyright (c) Steve Scherf et al.
# Submitted via: ExactAudioCopyFreeDBPlugin 1.0
#
DISCID=2b052304
DTITLE=John Legend - P.D.A. (We Just Don't Care) [CD Single)
DYEAR=2007
DGENRE=Pop
TTITLE0=P.D.A. (We Just Don't Care) (Album Version)
TTITLE1=Heaven (Johnny Douglas Remix)
TTITLE2=Heaven (Remix feat. Pusha T)
TTITLE3=video
EXTD=
EXTT0=
EXTT1=
EXTT2=
EXTT3=
PLAYORDER=
